<svg width="64" height="64" viewBox="0 0 64 64" fill="none" xmlns="http://www.w3.org/2000/svg">
<path fill-rule="evenodd" clip-rule="evenodd" d="M32 61.8667C48.4949 61.8667 61.8667 48.4949 61.8667 32C61.8667 15.5051 48.4949 2.13333 32 2.13333C15.5051 2.13333 2.13333 15.5051 2.13333 32C2.13333 48.4949 15.5051 61.8667 32 61.8667ZM32 64C49.6731 64 64 49.6731 64 32C64 14.3269 49.6731 0 32 0C14.3269 0 0 14.3269 0 32C0 49.6731 14.3269 64 32 64Z" fill="#E14D4D"/>
<path d="M24.6091 39.5425C25.0257 39.959 25.7011 39.959 26.1176 39.5425L32.1516 33.5085L38.1856 39.5425C38.6021 39.959 39.2775 39.959 39.6941 39.5425C40.1106 39.1259 40.1106 38.4505 39.6941 38.034L33.6601 32L39.6941 25.966C40.1106 25.5495 40.1106 24.8741 39.6941 24.4575C39.2775 24.041 38.6021 24.041 38.1856 24.4575L32.1516 30.4915L26.1176 24.4575C25.7011 24.041 25.0257 24.041 24.6091 24.4575C24.1926 24.8741 24.1926 25.5495 24.6091 25.966L30.6431 32L24.6091 38.034C24.1926 38.4505 24.1926 39.1259 24.6091 39.5425Z" fill="#E14D4D"/>
</svg>
