<svg width="15" height="13" viewBox="0 0 15 13" fill="none" xmlns="http://www.w3.org/2000/svg">
<path fill-rule="evenodd" clip-rule="evenodd" d="M1.59732 12.8378C1.31461 12.8378 1.03697 12.7629 0.79275 12.6208C0.548533 12.4787 0.346485 12.2744 0.207233 12.0289C0.0679821 11.7834 -0.00348462 11.5055 0.000130662 11.2234C0.00374595 10.9414 0.0823128 10.6653 0.227811 10.4234L6.13587 0.773645C6.27779 0.537683 6.47854 0.342408 6.71856 0.206832C6.95858 0.0712568 7.22969 0 7.5055 0C7.78131 0 8.05242 0.0712568 8.29244 0.206832C8.53246 0.342408 8.73321 0.537683 8.87514 0.773645L14.7722 10.4234C14.9177 10.6653 14.9963 10.9414 14.9999 11.2234C15.0035 11.5055 14.932 11.7834 14.7928 12.0289C14.6535 12.2744 14.4515 12.4787 14.2073 12.6208C13.963 12.7629 13.6854 12.8378 13.4027 12.8378H1.59732ZM6.50368 3.20693C6.46557 2.62918 6.92463 2.13964 7.5045 2.13964C8.08511 2.13964 8.54443 2.63038 8.5052 3.20879L8.18574 7.91873C8.16131 8.27888 7.8616 8.55856 7.50008 8.55856C7.13807 8.55856 6.83813 8.27814 6.81434 7.91746L6.50368 3.20693ZM7.5055 9.62838C6.91377 9.62838 6.43329 10.1074 6.43329 10.6982C6.43329 11.289 6.91377 11.768 7.5055 11.768C8.09723 11.768 8.57771 11.289 8.57771 10.6982C8.57771 10.1074 8.09723 9.62838 7.5055 9.62838Z" fill="black"/>
</svg>
