<svg width="40" height="40" viewBox="0 0 48 48" fill="none" xmlns="http://www.w3.org/2000/svg">
<circle cx="24" cy="24" r="24" fill="url(#paint0_linear_10349_1087)"/>
<path d="M31.9547 22.5958C31.28 21.9211 31.28 20.8272 31.9547 20.1526C32.6294 19.4779 33.7232 19.4779 34.3979 20.1526C35.0726 20.8272 35.0726 21.9211 34.3979 22.5958C33.7232 23.2705 32.6294 23.2705 31.9547 22.5958ZM26.152 28.3984C25.646 27.8924 25.646 27.072 26.152 26.566C26.658 26.06 27.4784 26.06 27.9844 26.566C28.4905 27.072 28.4905 27.8924 27.9844 28.3984C27.4784 28.9045 26.658 28.9045 26.152 28.3984ZM35.3141 25.3444C34.8081 24.8384 34.8081 24.018 35.3141 23.512C35.8201 23.006 36.6405 23.006 37.1465 23.512C37.6525 24.018 37.6525 24.8384 37.1465 25.3444C36.6405 25.8504 35.8201 25.8504 35.3141 25.3444ZM32.2601 28.3984C31.7541 27.8924 31.7541 27.072 32.2601 26.566C32.7661 26.06 33.5865 26.06 34.0925 26.566C34.5985 27.072 34.5985 27.8924 34.0925 28.3984C33.5865 28.9045 32.7661 28.9045 32.2601 28.3984ZM38.6735 28.093C38.3362 27.7557 38.3362 27.2088 38.6735 26.8714C39.0109 26.5341 39.5578 26.5341 39.8952 26.8714C40.2325 27.2088 40.2325 27.7557 39.8952 28.093C39.5578 28.4304 39.0109 28.4304 38.6735 28.093ZM35.6195 31.1471C35.2822 30.8097 35.2822 30.2628 35.6195 29.9255C35.9569 29.5881 36.5038 29.5881 36.8411 29.9255C37.1785 30.2628 37.1785 30.8097 36.8411 31.1471C36.5038 31.4844 35.9569 31.4844 35.6195 31.1471ZM28.9007 25.6498C28.226 24.9751 28.226 23.8813 28.9007 23.2066C29.5753 22.5319 30.6692 22.5319 31.3439 23.2066C32.0186 23.8813 32.0186 24.9751 31.3439 25.6498C30.6692 26.3245 29.5753 26.3245 28.9007 25.6498ZM28.9007 19.5418C28.226 18.8671 28.226 17.7732 28.9007 17.0985C29.5753 16.4239 30.6692 16.4239 31.3439 17.0985C32.0186 17.7732 32.0186 18.8671 31.3439 19.5418C30.6692 20.2164 29.5753 20.2164 28.9007 19.5418ZM25.8466 22.5958C25.172 21.9211 25.172 20.8272 25.8466 20.1526C26.5213 19.4779 27.6152 19.4779 28.2899 20.1526C28.9645 20.8272 28.9645 21.9211 28.2899 22.5958C27.6152 23.2705 26.5213 23.2705 25.8466 22.5958ZM19.7102 22.5958C19.0355 21.9211 19.0355 20.8272 19.7102 20.1526C20.3849 19.4779 21.4787 19.4779 22.1534 20.1526C22.8281 20.8272 22.8281 21.9211 22.1534 22.5958C21.4787 23.2705 20.3849 23.2705 19.7102 22.5958ZM13.9075 28.3984C13.4015 27.8924 13.4015 27.072 13.9075 26.566C14.4135 26.06 15.2339 26.06 15.7399 26.566C16.246 27.072 16.246 27.8924 15.7399 28.3984C15.2339 28.9045 14.4135 28.9045 13.9075 28.3984ZM23.0696 25.3444C22.5636 24.8384 22.5636 24.018 23.0696 23.512C23.5756 23.006 24.396 23.006 24.902 23.512C25.408 24.018 25.408 24.8384 24.902 25.3444C24.396 25.8504 23.5756 25.8504 23.0696 25.3444ZM20.0156 28.3984C19.5096 27.8924 19.5096 27.072 20.0156 26.566C20.5216 26.06 21.342 26.06 21.848 26.566C22.354 27.072 22.354 27.8924 21.848 28.3984C21.342 28.9045 20.5216 28.9045 20.0156 28.3984ZM8.10487 28.093C7.76753 27.7557 7.76753 27.2088 8.10487 26.8714C8.44221 26.5341 8.98914 26.5341 9.32648 26.8714C9.66382 27.2088 9.66382 27.7557 9.32648 28.093C8.98914 28.4304 8.44221 28.4304 8.10487 28.093ZM11.1589 31.1471C10.8216 30.8097 10.8216 30.2628 11.1589 29.9255C11.4962 29.5881 12.0432 29.5881 12.3805 29.9255C12.7179 30.2628 12.7179 30.8097 12.3805 31.1471C12.0432 31.4844 11.4962 31.4844 11.1589 31.1471ZM23.375 31.1471C23.0377 30.8097 23.0377 30.2628 23.375 29.9255C23.7124 29.5881 24.2593 29.5881 24.5966 29.9255C24.934 30.2628 24.934 30.8097 24.5966 31.1471C24.2593 31.4844 23.7124 31.4844 23.375 31.1471ZM10.8535 25.3444C10.3475 24.8384 10.3475 24.018 10.8535 23.512C11.3595 23.006 12.1799 23.006 12.6859 23.512C13.1919 24.018 13.1919 24.8384 12.6859 25.3444C12.1799 25.8504 11.3595 25.8504 10.8535 25.3444ZM16.6562 25.6498C15.9815 24.9751 15.9815 23.8813 16.6562 23.2066C17.3308 22.5319 18.4247 22.5319 19.0994 23.2066C19.7741 23.8813 19.7741 24.9751 19.0994 25.6498C18.4247 26.3245 17.3308 26.3245 16.6562 25.6498ZM16.6562 19.5418C15.9815 18.8671 15.9815 17.7732 16.6562 17.0985C17.3308 16.4239 18.4247 16.4239 19.0994 17.0985C19.7741 17.7732 19.7741 18.8671 19.0994 19.5418C18.4247 20.2164 17.3308 20.2164 16.6562 19.5418ZM13.6021 22.5958C12.9274 21.9211 12.9274 20.8272 13.6021 20.1526C14.2768 19.4779 15.3707 19.4779 16.0453 20.1526C16.72 20.8272 16.72 21.9211 16.0453 22.5958C15.3707 23.2705 14.2768 23.2705 13.6021 22.5958Z" fill="white"/>
<defs>
<linearGradient id="paint0_linear_10349_1087" x1="48" y1="0" x2="0" y2="48" gradientUnits="userSpaceOnUse">
<stop stop-color="#293037"/>
<stop offset="1" stop-color="#16181D"/>
</linearGradient>
</defs>
</svg>
