<svg width="123" height="28" viewBox="0 0 123 28" fill="none" xmlns="http://www.w3.org/2000/svg">
<g clip-path="url(#clip0_1_10896)">
<path d="M101.647 9.37866C97.9561 9.37866 94.9136 12.0832 94.9136 16.2537C94.9136 20.4242 97.9002 23.2133 101.647 23.2133C104.098 23.2133 106.409 22.0293 107.564 19.8329L105.367 18.7346C104.634 19.9459 103.253 20.6503 101.76 20.6503C99.7028 20.6503 98.0406 19.552 97.6753 17.4103H108.071C108.1 16.9879 108.127 16.5928 108.127 16.2264C108.127 12.0844 105.338 9.37985 101.647 9.37985V9.37866ZM97.7026 15.1828C98.0977 12.9852 99.7028 11.9428 101.676 11.9428C103.648 11.9428 105.113 13.1267 105.395 15.1828H97.7038H97.7026Z" fill="#00FFA7"/>
<path d="M62.8796 11.6894C62.0348 10.1961 60.2309 9.37866 58.3152 9.37866C54.5957 9.37866 51.8066 12.3652 51.8066 16.2811C51.8066 20.197 54.7647 23.2121 58.2022 23.2121C60.2309 23.2121 62.0336 22.1698 62.8796 20.6479V22.8742H65.6412V9.71659H62.8796V11.6894ZM58.6817 20.6205C56.371 20.6205 54.5969 18.6477 54.5969 16.2811C54.5969 13.9144 56.3722 11.9702 58.6258 11.9702C60.739 11.9702 62.8522 13.7455 62.8522 16.2811C62.8522 18.8167 60.8794 20.6205 58.6829 20.6205H58.6817Z" fill="#00FFA7"/>
<path d="M117.2 9.37866C115.791 9.37866 113.678 10.1116 112.917 11.7453V9.71659H110.156V22.8742H112.917V15.8028C112.917 13.0696 115.002 12.0832 116.721 12.0832C118.441 12.0832 119.708 13.379 119.708 15.5208V22.8742H122.47V15.3518C122.47 11.6049 120.525 9.37866 117.201 9.37866H117.2Z" fill="#00FFA7"/>
<path d="M75.502 9.37866C74.0932 9.37866 71.98 10.1116 71.2197 11.7453V9.71659H68.458V22.8742H71.2197V15.8028C71.2197 13.0696 73.3043 12.0832 75.0237 12.0832C76.7431 12.0832 78.0103 13.379 78.0103 15.5208V22.8742H80.772V15.3518C80.772 11.6049 78.8277 9.37866 75.5032 9.37866H75.502Z" fill="#00FFA7"/>
<path d="M46.6796 18.3383L38.6219 4.92725H35.3818V22.8752H38.1994V9.43566L46.3417 22.8752H49.4973V4.92725H46.6796V18.3383Z" fill="#00FFA7"/>
<path d="M90.1803 15.3518L87.3068 14.8164C86.2085 14.6188 85.7004 14.112 85.7004 13.3231C85.7004 12.2808 86.6024 11.7168 88.123 11.7168C89.5318 11.7168 90.5456 12.3926 90.6027 13.4076H93.2514C93.2514 10.5614 90.6027 9.37866 88.1516 9.37866C85.1091 9.37866 82.9388 10.985 82.9388 13.4076C82.9388 15.3804 84.0941 16.6761 86.6012 17.1545L89.2498 17.6613C90.5182 17.9148 90.9406 18.3657 90.9406 19.0987C90.9406 20.2541 90.0387 20.874 88.2361 20.874C86.4334 20.874 85.3054 20.0565 85.1936 18.8453H82.6294C82.7424 21.6629 85.0246 23.2121 88.2075 23.2121C91.3904 23.2121 93.7011 21.4939 93.7011 18.8726C93.7011 16.9569 92.6029 15.8016 90.1791 15.3506L90.1803 15.3518Z" fill="#00FFA7"/>
<path d="M27.5218 14.8163C26.207 13.9524 24.7696 13.1921 23.2109 12.5341C22.5719 12.2711 22.1257 11.9094 21.8723 11.449C21.6188 10.9885 21.557 10.4114 21.689 9.7165C22.1019 7.68777 22.234 5.74353 22.0829 3.88376C21.9318 2.024 21.2381 0.868635 19.9982 0.418864L19.5473 0.249903C18.2325 -0.237944 16.9367 -0.0130583 15.6588 0.925748C14.3809 1.86575 13.2398 3.12344 12.2355 4.7012C11.3848 6.03743 10.6256 7.4141 9.95575 8.83124C9.42031 8.73605 8.9158 8.65514 8.4458 8.58851C6.21004 8.30651 4.44546 8.2839 3.14851 8.5183C1.85274 8.7539 1.11026 9.22747 0.92226 9.94139L0.697375 10.7588C0.509376 11.4168 0.847299 12.1438 1.71114 12.9422C2.57499 13.7406 3.48643 14.4212 4.44427 14.9852C5.40212 15.5671 6.06844 16.2584 6.44444 17.0556C6.82044 17.854 6.96085 18.8821 6.86685 20.1409C6.73477 21.8318 6.85733 23.4048 7.23333 24.86C7.60932 26.3152 8.39821 27.2409 9.59998 27.6347L10.2758 27.8596C11.3467 28.2166 12.4687 27.8834 13.6432 26.8589C14.8164 25.8345 15.9682 24.3186 17.095 22.3089C17.5424 21.526 17.9897 20.6431 18.4383 19.6614C19.4354 19.8137 20.4028 19.9232 21.3357 19.9839C23.5048 20.1243 25.261 20.0398 26.6044 19.7304C27.9466 19.4211 28.7128 18.9463 28.9008 18.3074L29.1543 17.3781C29.3792 16.5333 28.8342 15.6777 27.5206 14.8139L27.5218 14.8163ZM15.1805 4.88563C16.3453 3.03539 17.5757 1.93238 18.8714 1.57542C19.8102 1.83838 20.3552 2.74506 20.5051 4.29427C20.655 5.84348 20.5991 7.40696 20.3362 8.98592C20.2041 9.73792 19.8995 10.2496 19.42 10.5209C18.9404 10.7933 18.3253 10.8266 17.5745 10.6196C15.9658 10.1579 14.3618 9.75101 12.7626 9.39762C13.473 7.82342 14.2774 6.31942 15.1805 4.88682V4.88563ZM14.927 16.1418C13.5563 15.7848 12.6211 15.1328 12.1237 14.1833C11.6263 13.2349 11.6394 12.1034 12.1665 10.7886C12.1749 10.7695 12.1832 10.7505 12.1903 10.7303C12.2153 10.7362 12.2391 10.741 12.2641 10.7457C13.9454 11.1122 15.6314 11.5489 17.321 12.0558C18.035 12.2628 18.5228 12.615 18.7858 13.1124C19.0487 13.6098 19.0582 14.2071 18.8143 14.902C18.5859 15.5766 18.3419 16.2298 18.0849 16.8676C17.0331 16.6522 15.9801 16.4119 14.9258 16.1418H14.927ZM7.20715 12.3806C6.19338 12.8221 5.11298 12.6293 3.96714 11.8035C3.38529 11.4085 2.89625 10.9682 2.50241 10.4792C3.66729 9.95329 5.50802 9.80336 8.02459 10.0282C8.42676 10.0675 8.86345 10.1234 9.33106 10.1948C8.78016 11.2752 8.07337 12.0046 7.20834 12.3806H7.20715ZM15.9134 21.3261C14.9365 22.9978 13.9406 24.2936 12.9268 25.2145C11.9131 26.1343 11.0112 26.5484 10.2223 26.4544C9.67732 25.6845 9.36319 24.7636 9.27871 23.6927C9.19423 22.6218 9.24539 21.495 9.43339 20.3123C9.56428 19.4484 10.0533 18.894 10.8981 18.65C11.7429 18.4061 12.8793 18.462 14.3071 18.819C15.209 19.0475 16.0871 19.2438 16.9438 19.408C16.6 20.1005 16.2573 20.7418 15.9134 21.3261ZM21.9568 17.5363C21.1369 17.4209 20.3171 17.2888 19.4961 17.1401C19.7103 16.5809 19.9161 16.0145 20.1113 15.4374C20.3742 14.7044 20.7598 14.2213 21.2666 13.9869C21.7735 13.7525 22.3649 13.7859 23.0419 14.0857C25.6335 15.2315 27.1172 16.3024 27.4932 17.2972C26.1403 17.7862 24.2949 17.8659 21.9568 17.5363Z" fill="#00FFA7"/>
</g>
<defs>
<clipPath id="clip0_1_10896">
<rect width="121.82" height="28" fill="white" transform="translate(0.648438)"/>
</clipPath>
</defs>
</svg>